<svg width="21" height="20" viewBox="0 0 21 20" fill="none" xmlns="http://www.w3.org/2000/svg">
<path d="M18.3346 0.25H2.82561C2.11874 0.25 1.44079 0.530889 0.94084 1.03068C0.440892 1.53063 0.160156 2.20858 0.160156 2.91561V16.4855C0.160156 17.1925 0.440883 17.8704 0.94084 18.3704C1.44079 18.8702 2.11874 19.1511 2.82561 19.1511H13.6525C13.8318 19.1514 14.0106 19.1319 14.1857 19.093C14.2712 19.1305 14.3636 19.1503 14.457 19.1511C14.6495 19.1488 14.8335 19.0724 14.9708 18.9379L20.7865 13.1221C20.8875 13.0215 20.9561 12.893 20.9838 12.7531C21.0114 12.6134 20.9967 12.4685 20.9417 12.3368C20.9806 12.1619 21.0001 11.9831 20.9998 11.8038V2.91563C20.9998 2.2086 20.719 1.53065 20.2191 1.0307C19.7191 0.530918 19.0412 0.250017 18.3343 0.250017L18.3346 0.25ZM2.82602 17.6973H2.82586C2.50456 17.6973 2.19643 17.5696 1.96924 17.3424C1.74189 17.1152 1.61435 16.8071 1.61435 16.4856V2.91578C1.61435 2.59432 1.74189 2.28618 1.96924 2.05899C2.19642 1.83181 2.50458 1.70411 2.82586 1.70411H18.3348C18.6561 1.70411 18.9643 1.83181 19.1915 2.05899C19.4188 2.28617 19.5464 2.59434 19.5464 2.91578V11.8039C19.5507 11.8296 19.5507 11.8559 19.5464 11.8815H15.427C14.9778 11.8841 14.5478 12.0636 14.2302 12.3811C13.9126 12.6987 13.7332 13.1287 13.7306 13.5777V17.6778H13.653L2.82602 17.6973ZM15.1845 16.6698L15.1844 13.5777C15.1844 13.444 15.2929 13.3355 15.4268 13.3355H18.5189L15.1845 16.6698Z" fill="url(#paint0_linear_1209_5393)"/>
<path d="M5.73278 7.51974H15.426C15.6856 7.51974 15.9256 7.38116 16.0554 7.15625C16.1854 6.93134 16.1854 6.65419 16.0554 6.42928C15.9256 6.20437 15.6856 6.0658 15.426 6.0658H5.73278C5.47314 6.0658 5.23316 6.20437 5.10334 6.42928C4.97336 6.65419 4.97336 6.93135 5.10334 7.15625C5.23316 7.38116 5.47316 7.51974 5.73278 7.51974Z" fill="url(#paint1_linear_1209_5393)"/>
<path d="M11.5485 9.94275H5.73278C5.47314 9.94275 5.23316 10.0813 5.10334 10.3062C4.97336 10.5311 4.97336 10.8083 5.10334 11.0332C5.23316 11.2581 5.47316 11.3967 5.73278 11.3967H11.5485C11.8083 11.3967 12.0483 11.2581 12.1781 11.0332C12.308 10.8083 12.308 10.5311 12.1781 10.3062C12.0483 10.0813 11.8083 9.94275 11.5485 9.94275Z" fill="url(#paint2_linear_1209_5393)"/>
<defs>
<linearGradient id="paint0_linear_1209_5393" x1="0.160157" y1="9.70054" x2="23.7551" y2="15.0527" gradientUnits="userSpaceOnUse">
<stop stop-color="#28A1C0"/>
<stop offset="1" stop-color="#16489C"/>
</linearGradient>
<linearGradient id="paint1_linear_1209_5393" x1="5.00586" y1="6.79277" x2="8.81047" y2="12.7939" gradientUnits="userSpaceOnUse">
<stop stop-color="#28A1C0"/>
<stop offset="1" stop-color="#16489C"/>
</linearGradient>
<linearGradient id="paint2_linear_1209_5393" x1="5.00586" y1="10.6697" x2="9.21077" y2="14.9952" gradientUnits="userSpaceOnUse">
<stop stop-color="#28A1C0"/>
<stop offset="1" stop-color="#16489C"/>
</linearGradient>
</defs>
</svg>
