<svg width="78" height="87" viewBox="0 0 78 87" fill="none" xmlns="http://www.w3.org/2000/svg">
<path fill-rule="evenodd" clip-rule="evenodd" d="M59.8614 83.3446C59.6634 83.3446 59.4697 83.3939 59.296 83.4857C58.9035 83.6962 58.4441 83.8073 57.969 83.8073H6.26111C4.67019 83.8073 3.37577 82.5128 3.37577 80.9228V15.3761C3.37577 13.7852 4.67022 12.4908 6.26111 12.4908H18.3303V17.7563C18.3303 18.4168 18.8657 18.9538 19.5279 18.9538H44.702C45.3643 18.9538 45.8996 18.4177 45.8996 17.7563V12.4908H57.9688C59.5597 12.4908 60.8541 13.7852 60.8541 15.3761V43.4064C60.8541 44.067 61.3895 44.604 62.0517 44.604C62.714 44.604 63.2493 44.0687 63.2493 43.4064L63.2485 15.3761C63.2485 12.464 60.8792 10.0965 57.9689 10.0965H45.9005V7.37492C45.9005 6.71435 45.3652 6.17734 44.7029 6.17734L39.3966 6.17818C38.822 2.68075 35.7813 0 32.115 0C28.4572 0 25.4214 2.68075 24.8469 6.17754H19.5297C18.8674 6.17754 18.3321 6.71368 18.3321 7.37511V10.0967H6.26203C3.34996 10.0967 0.982422 12.4651 0.982422 15.3763V80.923C0.982422 83.835 3.35167 86.2017 6.26203 86.2017H57.9677C58.7937 86.2017 59.6029 86.0121 60.3169 85.653C60.7562 85.4785 61.0652 85.045 61.0652 84.5406C61.0668 83.8801 60.524 83.3439 59.8618 83.3439L59.8614 83.3446ZM20.7245 8.57279H25.9357C26.598 8.57279 27.1333 8.03664 27.1333 7.37521C27.1333 4.6284 29.3672 2.39448 32.114 2.39448C34.8674 2.39448 37.108 4.6284 37.108 7.37521C37.108 8.03578 37.6441 8.57279 38.3055 8.57279H43.505V16.5599H20.7254L20.7245 8.57279ZM59.6767 46.1575C49.8865 46.1575 41.9227 54.1204 41.9227 63.9089C41.9227 73.6974 49.8865 81.6603 59.6767 81.6603C69.4651 81.6603 77.4281 73.6974 77.4281 63.9089C77.4281 54.1196 69.4643 46.1575 59.6767 46.1575ZM59.6767 79.2654C51.2077 79.2654 44.317 72.3764 44.317 63.9083C44.317 55.4402 51.2068 48.5511 59.6767 48.5511C68.1448 48.5511 75.0338 55.4402 75.0338 63.9083C75.0338 72.3764 68.1448 79.2654 59.6767 79.2654ZM58.1623 68.8976L66.0241 58.162C66.4141 57.6283 67.1658 57.5124 67.6978 57.9049C68.2306 58.2958 68.3466 59.0449 67.9566 59.5777L59.1118 71.6544C59.0981 71.6736 59.0793 71.6863 59.0606 71.699L59.0606 71.6991C59.0516 71.7051 59.0427 71.7112 59.0343 71.7179C59.0283 71.7227 59.0227 71.7279 59.0175 71.7337C59.0059 71.747 58.9947 71.7605 58.9837 71.774L58.9733 71.7869L58.9731 71.787C58.9331 71.8365 58.8933 71.8855 58.8388 71.9241C58.8185 71.938 58.7972 71.9469 58.776 71.9559L58.7759 71.9559L58.7758 71.956C58.7587 71.9632 58.7416 71.9704 58.7252 71.9801C58.6893 72.001 58.6542 72.0177 58.6174 72.0344C58.4655 72.1003 58.3076 72.1446 58.1473 72.1446H58.1456C57.9844 72.1446 57.8241 72.0995 57.6704 72.031C57.6295 72.0135 57.5936 71.9951 57.5552 71.9726C57.5385 71.9624 57.5211 71.9548 57.5039 71.9472C57.4815 71.9373 57.4594 71.9275 57.4391 71.9124C57.3853 71.874 57.3472 71.8252 57.3088 71.776L57.2899 71.7521C57.2819 71.742 57.2738 71.7319 57.2654 71.722C57.2524 71.7072 57.2364 71.6962 57.2204 71.6852C57.2012 71.672 57.1821 71.6589 57.1685 71.6394L53.5265 66.4983C53.144 65.9571 53.2727 65.2097 53.8113 64.828C54.3525 64.4455 55.0982 64.5725 55.4816 65.1128L58.1623 68.8976ZM17.0424 25.8494H12.6211C11.9589 25.8494 11.4236 26.3855 11.4236 27.0469C11.4236 27.7075 11.9589 28.2445 12.6211 28.2445H17.0424C17.7046 28.2445 18.24 27.7084 18.24 27.0469C18.2391 26.3864 17.7046 25.8494 17.0424 25.8494ZM21.6909 25.8494H51.6261C52.2884 25.8494 52.8237 26.3864 52.8237 27.0469C52.8237 27.7084 52.2884 28.2445 51.6261 28.2445H21.6909C21.0286 28.2445 20.4933 27.7075 20.4933 27.0469C20.4933 26.3855 21.0286 25.8494 21.6909 25.8494ZM17.0424 32.9237H12.6211C11.9589 32.9237 11.4236 33.4598 11.4236 34.1213C11.4236 34.7818 11.9589 35.3188 12.6211 35.3188H17.0424C17.7046 35.3188 18.24 34.7827 18.24 34.1213C18.2391 33.4598 17.7046 32.9237 17.0424 32.9237ZM21.6909 32.9237H51.6261C52.2884 32.9237 52.8237 33.4598 52.8237 34.1213C52.8237 34.7827 52.2884 35.3188 51.6261 35.3188H21.6909C21.0286 35.3188 20.4933 34.7818 20.4933 34.1213C20.4933 33.4598 21.0286 32.9237 21.6909 32.9237ZM17.0424 40.0024H12.6211C11.9589 40.0024 11.4236 40.5385 11.4236 41.2C11.4236 41.8605 11.9589 42.3975 12.6211 42.3975H17.0424C17.7046 42.3975 18.24 41.8614 18.24 41.2C18.2391 40.5385 17.7046 40.0024 17.0424 40.0024ZM51.6261 40.0021C52.2884 40.0021 52.8237 40.5391 52.8237 41.1997C52.8237 41.8603 52.2884 42.3964 51.6261 42.3972H21.6909C21.0286 42.3972 20.4933 41.8602 20.4933 41.1997C20.4933 40.5382 21.0286 40.0021 21.6909 40.0021H51.6261ZM17.0424 47.0768H12.6211C11.9589 47.0768 11.4236 47.6121 11.4236 48.2744C11.4236 48.9367 11.9589 49.472 12.6211 49.472H17.0424C17.7046 49.472 18.24 48.9367 18.24 48.2744C18.2391 47.6121 17.7046 47.0768 17.0424 47.0768ZM43.6433 47.0765C44.3056 47.0765 44.8409 47.6118 44.8409 48.2741C44.8409 48.9355 44.3056 49.4708 43.6433 49.4717H21.6933C21.0318 49.4717 20.4957 48.9364 20.4957 48.2741C20.4957 47.6118 21.0327 47.0765 21.6933 47.0765H43.6433ZM17.0424 54.1533H12.6211C11.9589 54.1533 11.4236 54.6887 11.4236 55.3509C11.4236 56.0132 11.9589 56.5485 12.6211 56.5485H17.0424C17.7046 56.5485 18.24 56.0132 18.24 55.3509C18.2391 54.6887 17.7046 54.1533 17.0424 54.1533ZM39.1248 54.1509C39.7871 54.1509 40.3224 54.6862 40.3224 55.3484C40.3224 56.0099 39.7863 56.546 39.1248 56.546H21.6933C21.0318 56.546 20.4957 56.0107 20.4957 55.3484C20.4957 54.6862 21.0327 54.1509 21.6933 54.1509H39.1248ZM17.0424 61.2299H12.6211C11.9589 61.2299 11.4236 61.7652 11.4236 62.4274C11.4236 63.0897 11.9589 63.625 12.6211 63.625H17.0424C17.7046 63.625 18.24 63.0897 18.24 62.4274C18.2391 61.7652 17.7046 61.2299 17.0424 61.2299ZM37.5583 63.6222H21.6909C21.0303 63.6222 20.4941 63.0869 20.4933 62.4254C20.4933 61.7632 21.0303 61.2278 21.6909 61.2278L37.5583 61.227C38.2198 61.227 38.7559 61.7623 38.7559 62.4246C38.7559 63.0869 38.2189 63.6222 37.5583 63.6222ZM17.0424 68.3064H12.6211C11.9589 68.3064 11.4236 68.8417 11.4236 69.504C11.4236 70.1662 11.9589 70.7016 12.6211 70.7016H17.0424C17.7046 70.7016 18.24 70.1662 18.24 69.504C18.2391 68.8417 17.7046 68.3064 17.0424 68.3064ZM38.3207 70.6988H21.6909C21.0303 70.6988 20.4941 70.1643 20.4933 69.5012C20.4933 68.8389 21.0303 68.3036 21.6909 68.3036H38.3207C38.9821 68.3036 39.5183 68.8389 39.5183 69.5012C39.5183 70.1635 38.9813 70.6988 38.3207 70.6988Z" fill="#E8EEF6"/>
</svg>
